<svg width="294" height="92" viewBox="0 0 294 92" fill="none" xmlns="http://www.w3.org/2000/svg">
<path d="M23.5911 0.285706L29.2817 5.72432L20.7593 13.8642L29.2763 22.0041L23.5911 27.4427L15.0742 19.2977L6.55722 27.4427L0.866669 22.0041L9.38362 13.8642L0.866669 5.72432L6.55722 0.285706L15.0742 8.42559L23.5911 0.285706Z" fill="black"/>
<path d="M66.4303 38.4669C71.4489 38.4669 75.9894 37.4144 80.052 35.317H80.0443V19.0226H67.4479V24.1505H74.1932V31.667C73.1756 32.2417 72.0039 32.6597 70.6857 32.9284C69.3674 33.1971 67.9644 33.3315 66.4766 33.3315C64.7729 33.3315 63.2311 33.0254 61.8512 32.4283C60.4713 31.8237 59.2919 31.0026 58.2974 29.9502C57.303 28.8977 56.5321 27.6512 55.9924 26.2106C55.4451 24.77 55.1753 23.1951 55.1753 21.4858C55.1753 19.8959 55.4528 18.4105 55.9924 17.0296C56.5398 15.6562 57.303 14.447 58.2974 13.4095C59.2842 12.372 60.4713 11.5584 61.8512 10.9762C63.2311 10.3865 64.7729 10.0954 66.4766 10.0954C68.1494 10.0954 69.7375 10.3716 71.2407 10.909C72.7439 11.4539 74.0236 12.2152 75.0798 13.208L79.4045 8.97574C77.67 7.47544 75.6965 6.43045 73.4994 5.84824C71.2947 5.25856 68.9434 4.96746 66.4303 4.96746C63.8864 4.96746 61.5506 5.37053 59.4306 6.16173C57.3029 6.95294 55.4759 8.0875 53.9419 9.55795C52.4078 11.0284 51.2129 12.8124 50.3418 14.8949C49.4707 16.9848 49.039 19.2988 49.039 21.8515C49.039 24.3446 49.4707 26.6137 50.3418 28.6514C51.2052 30.6966 52.4078 32.4432 53.9419 33.8988C55.4759 35.3543 57.3107 36.4814 59.4306 37.2726C61.5583 38.0713 63.8864 38.4669 66.4303 38.4669Z" fill="black"/>
<path fill-rule="evenodd" clip-rule="evenodd" d="M90.403 28.9009C90.5865 30.537 91.2249 31.8115 92.3255 32.7244C93.4279 33.6387 94.7584 34.092 96.3169 34.092C97.6929 34.092 98.8485 33.8125 99.776 33.2457C100.711 32.6866 101.525 31.9763 102.232 31.13L106.177 34.092C104.893 35.6713 103.456 36.7972 101.867 37.4621C100.278 38.1271 98.6128 38.4671 96.8719 38.4671C95.2221 38.4671 93.6636 38.1951 92.1963 37.6435C90.729 37.0994 89.4594 36.3211 88.3874 35.3162C87.3155 34.3112 86.4716 33.1097 85.8406 31.6967C85.2172 30.2837 84.8979 28.712 84.8979 26.9816C84.8979 25.2512 85.2096 23.6795 85.8406 22.2665C86.464 20.8535 87.3155 19.6445 88.3874 18.6471C89.4594 17.6421 90.729 16.8713 92.1963 16.3197C93.6636 15.7757 95.2221 15.4961 96.8719 15.4961C98.4 15.4961 99.7988 15.7606 101.068 16.2971C102.338 16.826 103.425 17.5967 104.322 18.6017C105.227 19.6067 105.926 20.8459 106.428 22.3194C106.93 23.7929 107.188 25.4855 107.188 27.3972V28.9009H90.403ZM100.171 20.9819C101.152 21.9114 101.654 23.1808 101.684 24.7903H90.4021C90.615 23.211 91.2004 21.9491 92.1659 21.0046C93.1314 20.0601 94.439 19.5916 96.0888 19.5916C97.8298 19.5916 99.1906 20.0525 100.171 20.9819Z" fill="black"/>
<path d="M112.048 16.0377H117.38V19.3914H117.473C117.971 18.3749 118.779 17.4771 119.891 16.6832C121.002 15.8968 122.494 15.4961 124.367 15.4961C127.896 15.4961 130.243 16.8242 131.401 19.4804C132.21 18.1078 133.228 17.0987 134.448 16.4606C135.668 15.8226 137.122 15.4961 138.808 15.4961C140.308 15.4961 141.575 15.7335 142.609 16.2084C143.643 16.6832 144.474 17.3436 145.119 18.1746C145.757 19.013 146.223 19.9849 146.503 21.1053C146.783 22.2257 146.923 23.4276 146.923 24.7112V37.51H141.295V25.3419C141.295 24.689 141.233 24.0509 141.109 23.4425C140.984 22.8341 140.767 22.2924 140.456 21.8324C140.145 21.3724 139.718 21.0014 139.189 20.7343C138.661 20.4672 137.969 20.3337 137.129 20.3337C136.251 20.3337 135.513 20.4895 134.907 20.8011C134.3 21.1127 133.795 21.5356 133.407 22.055C133.018 22.5744 132.73 23.1754 132.567 23.8431C132.396 24.5109 132.311 25.1935 132.311 25.8761V37.51H126.684V24.7186C126.684 23.3757 126.388 22.3073 125.79 21.5208C125.199 20.7269 124.212 20.3337 122.836 20.3337C121.896 20.3337 121.111 20.4821 120.466 20.7788C119.821 21.0756 119.292 21.4837 118.872 21.9882C118.453 22.4928 118.15 23.0789 117.955 23.7318C117.769 24.3848 117.675 25.0748 117.675 25.7871V37.51H112.048V16.0377Z" fill="black"/>
<path fill-rule="evenodd" clip-rule="evenodd" d="M157.275 28.9009C157.458 30.537 158.104 31.8115 159.197 32.7244C160.299 33.6387 161.63 34.092 163.188 34.092C164.565 34.092 165.72 33.8125 166.648 33.2457C167.583 32.6866 168.396 31.9763 169.103 31.13L173.049 34.092C171.764 35.6713 170.327 36.7972 168.738 37.4621C167.149 38.1271 165.484 38.4671 163.743 38.4671C162.094 38.4671 160.535 38.1951 159.068 37.6435C157.601 37.0994 156.331 36.3211 155.259 35.3162C154.187 34.3112 153.343 33.1097 152.712 31.6967C152.089 30.2837 151.769 28.712 151.769 26.9816C151.769 25.2512 152.081 23.6795 152.712 22.2665C153.336 20.8535 154.187 19.6445 155.259 18.6471C156.331 17.6421 157.601 16.8713 159.068 16.3197C160.535 15.7757 162.094 15.4961 163.743 15.4961C165.272 15.4961 166.67 15.7606 167.94 16.2971C169.21 16.826 170.297 17.5967 171.194 18.6017C172.099 19.6067 172.798 20.8459 173.3 22.3194C173.802 23.7929 174.06 25.4855 174.06 27.3972V28.9009H157.275ZM167.043 20.9819C168.024 21.9114 168.525 23.1808 168.556 24.7903H157.274C157.487 23.211 158.072 21.9491 159.037 21.0046C160.003 20.0601 161.311 19.5916 162.96 19.5916C164.701 19.5916 166.062 20.0525 167.043 20.9819Z" fill="black"/>
<path fill-rule="evenodd" clip-rule="evenodd" d="M185.364 32.7244C184.27 31.8115 183.625 30.537 183.441 28.9009H200.227V27.3972C200.227 25.4855 199.968 23.7929 199.466 22.3194C198.964 20.8459 198.265 19.6067 197.36 18.6017C196.463 17.5967 195.376 16.826 194.106 16.2971C192.837 15.7606 191.438 15.4961 189.91 15.4961C188.26 15.4961 186.702 15.7757 185.234 16.3197C183.767 16.8713 182.497 17.6421 181.425 18.6471C180.353 19.6445 179.502 20.8535 178.879 22.2665C178.248 23.6795 177.936 25.2512 177.936 26.9816C177.936 28.712 178.255 30.2837 178.879 31.6967C179.51 33.1097 180.353 34.3112 181.425 35.3162C182.497 36.3211 183.767 37.0994 185.234 37.6435C186.702 38.1951 188.26 38.4671 189.91 38.4671C191.651 38.4671 193.316 38.1271 194.905 37.4621C196.494 36.7972 197.931 35.6713 199.215 34.092L195.27 31.13C194.563 31.9763 193.749 32.6866 192.814 33.2457C191.887 33.8125 190.731 34.092 189.355 34.092C187.796 34.092 186.466 33.6387 185.364 32.7244ZM194.722 24.7903C194.692 23.1808 194.19 21.9114 193.209 20.9819C192.229 20.0525 190.868 19.5916 189.127 19.5916C187.477 19.5916 186.169 20.0601 185.204 21.0046C184.238 21.9491 183.653 23.211 183.44 24.7903H194.722Z" fill="black"/>
<path d="M210.371 16.0375H205.073V37.51H210.648V25.791C210.648 25.079 210.74 24.3892 210.925 23.7365C211.11 23.0838 211.418 22.4978 211.834 21.9935C212.249 21.4891 212.781 21.0812 213.412 20.7845C214.051 20.4878 214.829 20.3395 215.761 20.3395C216.723 20.3395 217.486 20.5545 218.04 20.9847C218.602 21.4149 219.01 21.9564 219.272 22.5942C219.534 23.2321 219.696 23.9219 219.757 24.6488C219.819 25.3757 219.85 26.0432 219.85 26.6366V37.4952H225.425V23.9442C225.425 22.839 225.286 21.7858 225.009 20.7696C224.732 19.7535 224.262 18.8635 223.615 18.0847C222.961 17.3133 222.121 16.6828 221.082 16.2081C220.042 15.7334 218.779 15.4961 217.293 15.4961C215.437 15.4961 213.967 15.8966 212.881 16.6828C211.795 17.4765 210.987 18.4036 210.463 19.4791H210.371V16.0375Z" fill="black"/>
<path d="M229.302 20.5922V15.9205H233.948V10.3145L239.583 8.79525V15.9205H245.778V20.5922H239.583V30.2166C239.583 31.3181 239.793 32.1841 240.213 32.8297C240.633 33.4678 241.474 33.7945 242.727 33.7945C243.225 33.7945 243.778 33.7413 244.369 33.6349C244.961 33.5286 245.435 33.3539 245.778 33.1108V37.7369C245.186 38.0104 244.455 38.2003 243.599 38.3066C242.735 38.413 241.98 38.4661 241.326 38.4661C239.824 38.4661 238.594 38.3066 237.637 37.9876C236.68 37.6685 235.933 37.1824 235.388 36.5215C234.843 35.8682 234.462 35.0478 234.26 34.0679C234.057 33.088 233.956 31.9638 233.956 30.68V20.5922H229.302Z" fill="black"/>
<path fill-rule="evenodd" clip-rule="evenodd" d="M254.19 28.9009C254.374 30.537 255.012 31.8115 256.113 32.7244C257.215 33.6387 258.546 34.092 260.104 34.092C261.48 34.092 262.636 33.8125 263.563 33.2457C264.498 32.6866 265.312 31.9763 266.019 31.13L269.965 34.092C268.68 35.6713 267.243 36.7972 265.654 37.4621C264.065 38.1271 262.4 38.4671 260.659 38.4671C259.009 38.4671 257.451 38.1951 255.984 37.6435C254.516 37.0994 253.247 36.3211 252.175 35.3162C251.103 34.3112 250.259 33.1097 249.628 31.6967C249.004 30.2837 248.685 28.712 248.685 26.9816C248.685 25.2512 248.997 23.6795 249.628 22.2665C250.251 20.8535 251.103 19.6445 252.175 18.6471C253.247 17.6421 254.516 16.8713 255.984 16.3197C257.451 15.7681 259.009 15.4961 260.659 15.4961C262.187 15.4961 263.586 15.7606 264.856 16.2971C266.125 16.826 267.213 17.5967 268.11 18.6017C269.014 19.6067 269.714 20.8459 270.216 22.3194C270.717 23.7929 270.976 25.4855 270.976 27.3972V28.9009H254.19ZM263.951 20.9819C264.932 21.9114 265.434 23.1808 265.464 24.7903H254.182C254.395 23.211 254.98 21.9491 255.946 21.0046C256.911 20.0601 258.219 19.5916 259.868 19.5916C261.609 19.5916 262.97 20.0525 263.951 20.9819Z" fill="black"/>
<path fill-rule="evenodd" clip-rule="evenodd" d="M61.1572 53.7811H66.1306L80.0515 86.3234H73.4809L70.4681 78.8775H56.4564L53.5345 86.3234H47.1001L61.1572 53.7811ZM68.4621 73.9085L63.4887 60.6706L58.417 73.9085H68.4621Z" fill="black"/>
<path d="M88.3063 63.9166H82.9746V86.3225H88.6017V74.0899C88.6017 73.3466 88.695 72.6266 88.8815 71.9453C89.0758 71.264 89.3789 70.6523 89.7986 70.1259C90.2183 69.5994 90.7468 69.1736 91.3919 68.8639C92.037 68.5542 92.822 68.3994 93.7625 68.3994C95.1382 68.3994 96.1252 68.8174 96.7159 69.6381C97.3144 70.4588 97.6097 71.5737 97.6097 72.975V86.3225H103.237V74.1828C103.237 73.4705 103.322 72.7582 103.493 72.0614C103.657 71.3646 103.944 70.7375 104.333 70.1955C104.721 69.6536 105.227 69.2123 105.833 68.8871C106.439 68.562 107.177 68.3994 108.056 68.3994C108.895 68.3994 109.587 68.5387 110.115 68.8174C110.644 69.0962 111.071 69.4833 111.382 69.9633C111.693 70.4433 111.911 71.0085 112.035 71.6433C112.159 72.2782 112.222 72.944 112.222 73.6253V86.3225H117.849V72.9672C117.849 71.6279 117.709 70.3736 117.429 69.2046C117.149 68.0355 116.683 67.0213 116.046 66.1464C115.4 65.2793 114.569 64.5902 113.535 64.0947C112.501 63.5992 111.235 63.3515 109.734 63.3515C108.048 63.3515 106.594 63.6921 105.374 64.358C104.154 65.0238 103.136 66.0767 102.327 67.509C101.169 64.7373 98.8222 63.3515 95.2936 63.3515C93.4205 63.3515 91.9282 63.7696 90.8168 64.5902C89.7054 65.4186 88.897 66.3554 88.3996 67.4161H88.3063V63.9166Z" fill="black"/>
<path d="M135.693 69.9578C134.6 68.4687 133.136 67.7204 131.3 67.7204C130.557 67.7204 129.821 67.9018 129.108 68.2646C128.388 68.6275 128.031 69.2246 128.031 70.041C128.031 70.7061 128.326 71.1974 128.922 71.4998C129.511 71.8021 130.262 72.0592 131.161 72.2784C132.067 72.49 133.036 72.7092 134.081 72.9435C135.127 73.1703 136.095 73.518 137.002 73.9942C137.908 74.4628 138.652 75.1129 139.248 75.9292C139.837 76.7456 140.139 77.8718 140.139 79.3004C140.139 80.6081 139.853 81.7117 139.272 82.6036C138.691 83.5031 137.947 84.2212 137.025 84.7729C136.103 85.3172 135.073 85.7178 133.919 85.9597C132.764 86.2015 131.61 86.3225 130.464 86.3225C128.721 86.3225 127.117 86.0806 125.653 85.5968C124.189 85.1131 122.88 84.2287 121.725 82.9513L125.467 79.5347C126.18 80.3284 126.954 80.9709 127.783 81.4698C128.604 81.9687 129.611 82.2257 130.797 82.2257C131.2 82.2257 131.626 82.1803 132.059 82.0896C132.493 81.9989 132.896 81.8477 133.276 81.6361C133.648 81.4244 133.95 81.1599 134.19 80.8348C134.422 80.5174 134.538 80.147 134.538 79.7161C134.538 78.9603 134.244 78.3934 133.648 78.0306C133.059 77.6677 132.307 77.3654 131.401 77.1386C130.495 76.9119 129.526 76.7002 128.48 76.5037C127.435 76.3072 126.466 75.9897 125.56 75.5437C124.654 75.1053 123.91 74.4855 123.321 73.6994C122.732 72.9133 122.43 71.8173 122.43 70.4189C122.43 69.2019 122.686 68.1437 123.205 67.2518C123.716 66.3523 124.398 65.6191 125.235 65.0371C126.079 64.4626 127.04 64.0318 128.132 63.7596C129.224 63.4875 130.324 63.3515 131.447 63.3515C132.943 63.3515 134.422 63.6009 135.886 64.1073C137.35 64.6062 138.536 65.4679 139.434 66.6849L135.693 69.9578Z" fill="black"/>
<path d="M141.108 63.7777V68.4493H145.762V78.5371C145.762 79.8209 145.864 80.9452 146.066 81.9251C146.268 82.905 146.65 83.7178 147.194 84.3786C147.739 85.0319 148.486 85.5257 149.444 85.8447C150.401 86.1638 151.63 86.3233 153.133 86.3233C153.786 86.3233 154.541 86.2701 155.405 86.1638C156.261 86.0574 156.993 85.8675 157.584 85.594V80.9679C157.242 81.211 156.767 81.3857 156.175 81.4921C155.584 81.5984 155.031 81.6516 154.533 81.6516C153.28 81.6516 152.44 81.325 152.02 80.6869C151.599 80.0412 151.389 79.1752 151.389 78.0738V68.4493H157.584V63.7777H151.389V56.6524L145.755 58.1716V63.7777H141.108Z" fill="black"/>
<path fill-rule="evenodd" clip-rule="evenodd" d="M167.919 80.5797C166.826 79.6668 166.18 78.3923 165.997 76.7563H182.782V75.2526C182.782 73.3408 182.524 71.6482 182.022 70.1748C181.52 68.7013 180.821 67.4621 179.916 66.4571C179.019 65.4521 177.932 64.6814 176.662 64.1524C175.393 63.6159 173.994 63.3515 172.466 63.3515C170.816 63.3515 169.257 63.6311 167.79 64.1751C166.323 64.7267 165.053 65.4975 163.981 66.5024C162.909 67.4999 162.058 68.7089 161.434 70.1219C160.803 71.5349 160.492 73.1066 160.492 74.837C160.492 76.5674 160.811 78.1391 161.434 79.5521C162.065 80.9651 162.909 82.1665 163.981 83.1715C165.053 84.1765 166.323 84.9548 167.79 85.4989C169.257 86.0505 170.816 86.3225 172.466 86.3225C174.207 86.3225 175.872 85.9825 177.46 85.3175C179.049 84.6526 180.486 83.5267 181.771 81.9474L177.825 78.9854C177.118 79.8317 176.305 80.542 175.37 81.1011C174.442 81.6678 173.287 81.9474 171.911 81.9474C170.352 81.9474 169.022 81.494 167.919 80.5797ZM177.278 72.6457C177.248 71.0362 176.746 69.7667 175.765 68.8373C174.784 67.9079 173.423 67.447 171.683 67.447C170.033 67.447 168.725 67.9155 167.76 68.86C166.794 69.8045 166.209 71.0664 165.996 72.6457H177.278Z" fill="black"/>
<path d="M193.898 63.9166H188.612V86.3225H193.913V74.3221C193.913 74.0124 193.979 73.5402 194.111 72.9208C194.242 72.3014 194.506 71.6743 194.901 71.0549C195.297 70.4356 195.868 69.8781 196.622 69.3981C197.369 68.9181 198.365 68.6781 199.602 68.6781C200.012 68.6781 200.437 68.7168 200.862 68.7942C201.286 68.8716 201.726 68.9723 202.165 69.0962V63.6766C201.836 63.5837 201.521 63.5063 201.213 63.4444C200.906 63.3824 200.583 63.3515 200.261 63.3515C198.848 63.3515 197.596 63.7154 196.505 64.4276C195.414 65.1477 194.572 66.1541 193.986 67.4626H193.898V63.9166Z" fill="black"/>
<path fill-rule="evenodd" clip-rule="evenodd" d="M222.898 82.5292C222.084 83.8538 220.998 84.8192 219.626 85.4179C218.254 86.0166 216.773 86.3235 215.184 86.3235C213.439 86.3235 211.888 86.0316 210.532 85.4404C209.175 84.8566 208.012 84.0484 207.05 83.0231C206.081 81.9978 205.352 80.7929 204.856 79.4084C204.36 78.0239 204.104 76.5346 204.104 74.9405C204.104 73.3464 204.368 71.8572 204.903 70.4726C205.43 69.0881 206.174 67.8832 207.128 66.8654C208.082 65.8401 209.221 65.0394 210.563 64.4481C211.904 63.8644 213.369 63.565 214.959 63.565C216.021 63.565 216.951 63.6698 217.765 63.8794C218.572 64.0889 219.293 64.3583 219.913 64.6951C220.533 65.0244 221.068 65.3836 221.502 65.7578C221.937 66.132 222.301 66.5062 222.58 66.8654H222.72V52.4066L228.333 50.9098V85.7846H222.999V82.5292H222.898ZM209.71 74.948C209.71 75.7937 209.857 76.6019 210.152 77.3877C210.446 78.1735 210.88 78.8621 211.462 79.4608C212.036 80.067 212.733 80.5459 213.54 80.9052C214.346 81.2644 215.269 81.444 216.3 81.444C217.331 81.444 218.246 81.2644 219.06 80.9052C219.874 80.5459 220.564 80.067 221.138 79.4608C221.712 78.8621 222.154 78.1661 222.448 77.3877C222.743 76.6094 222.89 75.7937 222.89 74.948C222.89 74.1098 222.743 73.2941 222.448 72.5082C222.154 71.7299 221.712 71.0339 221.138 70.4352C220.557 69.8365 219.866 69.3501 219.06 68.9908C218.246 68.6316 217.331 68.452 216.3 68.452C215.269 68.452 214.354 68.6316 213.54 68.9908C212.726 69.3501 212.036 69.8365 211.462 70.4352C210.88 71.0339 210.446 71.7299 210.152 72.5082C209.857 73.2941 209.71 74.1098 209.71 74.948Z" fill="black"/>
<path fill-rule="evenodd" clip-rule="evenodd" d="M248.406 82.7635H248.536V85.7633H253.53V73.1822C253.53 72.6683 253.515 72.0638 253.484 71.3838C253.454 70.7037 253.354 69.9934 253.185 69.268C253.016 68.5426 252.74 67.8248 252.356 67.1069C251.973 66.3966 251.428 65.7619 250.715 65.2179C250.001 64.6738 249.112 64.2204 248.03 63.8729C246.948 63.5253 245.621 63.3515 244.048 63.3515C242.292 63.3515 240.589 63.6311 238.939 64.1751C237.29 64.7192 235.848 65.6183 234.612 66.8651L237.528 69.7365C238.272 69.0413 239.146 68.4822 240.167 68.0741C241.179 67.6661 242.276 67.4621 243.45 67.4621C244.931 67.4621 246.143 67.8097 247.102 68.4897C248.06 69.1698 248.536 70.1974 248.536 71.5651V72.1545H247.148C246.219 72.1545 245.237 72.1772 244.186 72.2225C243.135 72.2679 242.1 72.3736 241.064 72.5399C240.029 72.7137 239.039 72.963 238.08 73.2955C237.121 73.628 236.277 74.0814 235.556 74.6405C234.835 75.1997 234.252 75.8949 233.822 76.7336C233.393 77.5648 233.178 78.5773 233.178 79.7637C233.178 80.8593 233.416 81.8114 233.876 82.635C234.336 83.4511 234.942 84.1387 235.702 84.6828C236.461 85.2344 237.32 85.6424 238.295 85.9145C239.269 86.1865 240.259 86.3225 241.279 86.3225C242.76 86.3225 244.117 86.0353 245.352 85.4762C246.588 84.9095 247.6 84.0103 248.406 82.7635ZM247.063 75.9704H248.222V77.1945C248.222 78.7511 247.769 79.9677 246.856 80.8669C245.943 81.7661 244.532 82.2119 242.621 82.2119C242.161 82.2119 241.693 82.159 241.233 82.0532C240.773 81.9474 240.351 81.7736 239.982 81.5318C239.607 81.2825 239.307 80.9878 239.077 80.6402C238.847 80.2926 238.732 79.8543 238.732 79.3405C238.732 78.5547 239.031 77.935 239.614 77.4968C240.197 77.0585 240.911 76.7185 241.762 76.4918C242.614 76.2651 243.511 76.1215 244.47 76.0611C245.429 76.0006 246.296 75.9704 247.063 75.9704Z" fill="black"/>
<path d="M259.361 63.9166H264.545V67.4161H264.636C265.119 66.3554 265.905 65.4186 266.986 64.5902C268.066 63.7696 269.517 63.3515 271.338 63.3515C274.769 63.3515 277.051 64.7373 278.177 67.509C278.962 66.0767 279.952 65.0238 281.139 64.358C282.325 63.6921 283.738 63.3515 285.378 63.3515C286.836 63.3515 288.068 63.5992 289.073 64.0947C290.078 64.5902 290.886 65.2793 291.514 66.1464C292.133 67.0213 292.587 68.0355 292.859 69.2046C293.131 70.3736 293.267 71.6279 293.267 72.9672V86.3225H287.796V73.6253C287.796 72.944 287.735 72.2782 287.614 71.6433C287.494 71.0085 287.282 70.4433 286.98 69.9633C286.677 69.4833 286.262 69.0962 285.748 68.8174C285.234 68.5387 284.562 68.3994 283.746 68.3994C282.892 68.3994 282.174 68.562 281.585 68.8871C280.995 69.2123 280.504 69.6536 280.126 70.1955C279.748 70.7375 279.469 71.3646 279.31 72.0614C279.144 72.7582 279.061 73.4705 279.061 74.1828V86.3225H273.59V72.975C273.59 71.5737 273.303 70.4588 272.721 69.6381C272.147 68.8174 271.187 68.3994 269.85 68.3994C268.935 68.3994 268.172 68.5542 267.545 68.8639C266.918 69.1736 266.404 69.5994 265.996 70.1259C265.588 70.6523 265.293 71.264 265.104 71.9453C264.923 72.6266 264.832 73.3466 264.832 74.0899V86.3225H259.361V63.9166Z" fill="black"/>
<path d="M23.5911 31.9689L29.2817 37.4075L20.7593 45.5474L29.2763 53.6873L23.5911 59.1259L15.0742 50.9808L6.55722 59.1259L0.866669 53.6873L9.38362 45.5474L0.866669 37.4075L6.55722 31.9689L15.0742 40.1088L23.5911 31.9689Z" fill="black"/>
<path d="M29.2817 69.2719L23.5911 63.652L15.0742 72.0632L6.55722 63.652L0.866669 69.2719L9.38362 77.6832L0.866669 86.0944L6.55722 91.7143L15.0742 83.2977L23.5911 91.7143L29.2763 86.0944L20.7593 77.6832L29.2817 69.2719Z" fill="black"/>
</svg>
