<svg width="284" height="87" viewBox="0 0 284 87" fill="none" xmlns="http://www.w3.org/2000/svg">
<path fill-rule="evenodd" clip-rule="evenodd" d="M260.54 10.0542L260.139 9.63522C259.203 10.3335 257.733 10.754 255.728 10.8937L250.114 11.3127L249.847 12.4315C252.653 12.5711 254.122 13.8296 254.122 16.3481L253.052 25.1574C251.582 24.0386 249.71 23.4784 247.438 23.4784C242.76 23.4784 239.018 26.2762 236.21 31.7306C234.341 35.7366 233.38 40.1399 233.404 44.5978C233.404 51.0297 235.943 54.3862 240.891 54.3862C244.23 54.3862 247.173 52.4279 249.71 48.7921L249.31 51.4487C249.31 53.407 250.379 54.3878 252.518 54.3878C255.191 54.3878 257.196 53.2689 258.533 51.171L258.266 50.6124L257.063 50.8917C255.191 50.8917 254.254 50.0522 254.254 48.5144L260.54 10.0542ZM238.482 44.7374C238.349 39.4211 239.285 34.8061 241.424 30.8911C243.16 27.814 245.835 26.2762 249.443 26.2762L252.652 26.6967L249.443 48.0923C247.171 50.0506 245.032 51.0313 243.027 51.0313C239.955 51.0297 238.482 48.9318 238.482 44.7374ZM267.09 42.6378C267.09 41.2397 267.223 39.9813 267.357 39.0021C278.319 39.0021 283.8 35.7853 283.8 29.3517C283.8 25.2954 281.528 23.3387 276.983 23.3387C272.438 23.3387 268.693 25.2954 265.888 29.2121C263.212 32.9875 261.876 37.604 261.876 43.1965C261.876 50.8901 264.951 54.5258 271.102 54.5258C275.243 54.5258 278.453 52.9881 280.592 49.9109L279.923 49.0714C278.453 50.3299 276.181 51.0297 273.106 51.0297C269.097 51.0297 267.09 48.2335 267.09 42.6378ZM272.704 26.4158C273.64 25.7176 274.576 25.4367 275.51 25.4367C277.649 25.4367 278.718 26.8348 278.718 29.7707C278.718 33.6873 276.716 36.063 272.57 36.9025L267.489 37.3231C268.159 31.8703 269.896 28.2345 272.704 26.4158Z" fill="black"/>
<path fill-rule="evenodd" clip-rule="evenodd" d="M282.585 63.3407H279.909V82.2192L268.948 63.3407H264.671V86.4136H267.478V67.5334L278.307 86.4136H282.585V63.3407Z" fill="black"/>
<path fill-rule="evenodd" clip-rule="evenodd" d="M205.59 0.823715L205.189 0.404755L194.894 1.24426L176.849 1.1046L176.716 2.08377C178.587 2.50432 179.79 3.48189 180.458 4.88001L180.861 6.55903L180.458 11.3136L176.05 39.4236C174.847 46.6951 173.911 50.8927 173.108 51.8718C172.439 52.4304 171.505 52.7081 170.436 52.7081C169.366 52.7081 168.697 52.2892 168.297 51.5925C167.76 50.6133 167.494 48.0932 167.494 44.0385V34.2485C167.494 31.7316 167.361 29.9145 167.094 28.9353C166.158 25.298 163.752 23.4793 160.007 23.4793C155.998 23.4793 153.056 25.4376 151.184 29.213V28.5148C151.184 25.298 149.982 23.7602 147.576 23.7602C145.036 23.7602 143.165 24.7394 141.962 26.8358L142.229 27.534L143.43 27.2547C144.636 27.2547 145.435 27.534 145.839 28.0926C146.505 28.7925 146.772 31.0301 146.772 34.6659V39.8394C146.772 46.6919 146.371 50.6102 145.569 51.4465C144.903 52.5653 143.832 53.1271 142.362 53.1271V54.1063H155.462V53.1271C153.725 52.9875 152.522 52.2876 151.987 51.0291C151.586 50.1896 151.45 47.8123 151.45 43.8973V29.7716C152.522 28.0926 154.525 27.2547 157.468 27.2547C160.14 27.2547 161.745 28.3735 162.279 30.4699C162.683 31.4491 162.816 33.6867 162.816 37.3225V41.0979C162.816 47.5314 162.413 51.1672 161.613 51.867C160.944 52.5637 160.007 52.9859 158.804 53.1255V54.1047H197.705L199.71 44.7352H198.508C196.636 47.9488 195.032 49.9087 193.693 50.8879C192.623 51.3068 190.218 51.5877 186.475 51.5877H182.198C180.728 51.5877 179.925 51.026 179.925 49.9071C179.925 49.2073 179.925 48.7883 180.059 48.2297L183.267 27.9498H190.488C192.623 27.9498 194.096 28.2307 194.762 28.7893C195.299 29.2083 195.832 30.4667 196.235 32.7044H197.305L199.173 20.818H197.971C196.901 23.0556 195.965 24.314 195.298 24.733C194.495 25.2916 193.159 25.5725 191.154 25.5725H183.534L186.742 3.33589H191.691C197.035 3.33589 200.111 3.75644 200.913 4.59436C201.849 5.43386 202.517 7.25095 202.919 9.90912H204.122L205.59 0.823715ZM203.985 27.2563H205.191C206.928 27.2563 207.73 28.0942 207.73 29.7732C207.73 31.7316 206.527 39.8426 203.985 54.1078H208.8L212.542 30.1922C214.681 28.0942 217.087 27.1167 219.762 27.1167C222.302 27.1167 223.505 28.2355 223.371 30.4715C223.371 32.0109 223.104 34.5278 222.435 38.0239L221.232 43.618C220.563 46.6935 220.163 49.0724 220.163 50.8911C220.163 53.1287 221.366 54.3872 223.638 54.3872C226.044 54.3872 227.916 53.2683 229.252 51.1704L228.985 50.6118L228.049 50.8911C226.044 50.8911 224.975 50.1912 224.975 48.7931L228.183 29.3527C228.183 25.4376 226.178 23.4793 222.035 23.4793C218.156 23.4793 214.948 25.5773 212.408 29.6336L212.809 26.6961C212.809 24.5981 211.876 23.4793 210.003 23.4793C207.327 23.4793 205.191 24.5997 203.718 26.6961L203.985 27.2563Z" fill="black"/>
<path fill-rule="evenodd" clip-rule="evenodd" d="M192.487 66.1341V86.4124H196.096V66.1341H202.781V63.3394H185.937V66.1341H192.487ZM176.18 86.4124H179.922L171.635 63.3394H168.024L159.47 86.4124H162.678L165.217 78.8616H173.641L176.18 86.4124ZM165.885 76.624L169.227 66.553L172.838 76.624H165.885ZM150.249 74.6641C150.249 69.9095 148.776 66.6927 145.837 64.8756C144.498 63.8965 141.96 63.3378 138.35 63.3378H131.8V86.4108H137.547C140.889 86.4108 143.295 86.1315 144.766 85.4317C148.375 83.6162 150.249 79.9804 150.249 74.6641ZM143.028 66.6927C145.3 67.9512 146.37 70.7506 146.37 74.9434C146.37 79.1409 145.3 81.7959 143.028 83.0544C141.825 83.6162 140.088 83.8939 137.949 83.8939H135.409V65.8548H138.216C140.489 65.8564 142.092 66.1341 143.028 66.6927ZM233.794 66.2737C231.789 68.5114 230.853 71.5869 230.853 75.3655C230.853 83.056 234.331 86.8314 241.415 86.8314C244.49 86.8314 247.029 85.7126 248.902 83.4781C250.908 81.2405 251.842 78.3014 251.842 74.526C251.842 66.8324 248.367 62.9189 241.416 62.9189C238.205 62.9173 235.666 64.0361 233.794 66.2737ZM241.413 65.4342C245.824 65.4342 248.097 68.5114 248.097 74.6641C248.097 81.0992 245.824 84.3129 241.28 84.3129C236.869 84.3129 234.596 81.2373 234.596 75.083C234.596 68.651 236.869 65.4342 241.413 65.4342ZM214.412 86.4124H217.754V63.3394H214.412V86.4124Z" fill="black"/>
<path fill-rule="evenodd" clip-rule="evenodd" d="M131.399 23.3408C127.656 23.3408 124.582 24.8802 122.309 27.9557C119.904 31.0313 118.701 35.2288 118.701 40.542C118.701 49.9114 122.309 54.5263 129.528 54.5263C133.673 54.5263 136.747 52.9886 138.619 49.9114L137.952 49.0719C136.347 50.4701 134.343 51.1699 131.936 51.1699C126.455 51.1699 123.782 47.3945 123.782 39.7025V39.2835L125.519 39.4232C134.343 39.4232 138.754 36.4873 138.754 30.4726C138.751 25.7197 136.345 23.3408 131.399 23.3408ZM124.582 37.6061H123.779C123.379 29.4951 125.383 25.4388 129.929 25.4388C132.468 25.4388 133.806 27.1178 133.806 30.6123C133.806 35.2288 130.731 37.6061 124.582 37.6061ZM112.151 10.0563L111.749 9.63732C111.08 10.3356 109.61 10.7561 107.471 10.8958L101.857 11.3148V12.4336C103.862 12.5732 105.332 13.2731 106.268 14.5315C106.67 15.371 106.935 18.7275 106.935 24.6009V25.4404C105.866 24.0422 104.129 23.3424 101.722 23.3424C98.2466 23.3424 95.5723 24.8818 93.4334 27.9573C91.2946 31.1741 90.2252 35.3684 90.2252 40.6848C90.2252 50.1939 93.1649 54.8088 99.0475 54.8088C102.925 54.8088 105.598 52.9917 107.069 49.0751V49.4972C107.069 52.9933 108.272 54.5311 110.546 54.5311C113.085 54.5311 114.957 53.5519 116.293 51.454L116.16 50.8954H114.957C113.754 50.8954 112.952 50.6161 112.551 50.1955C111.884 49.356 111.482 46.9787 111.482 43.0637V32.9943C111.482 19.5654 111.749 11.8734 112.151 10.0563ZM103.46 26.2783C105.199 26.2783 106.4 26.4179 106.935 26.8385V48.0943C106.268 49.0735 105.197 49.775 103.862 50.332L101.054 50.8938C97.1772 50.8938 95.3068 47.3977 95.3068 40.5451C95.3068 31.0328 97.9796 26.2783 103.46 26.2783ZM58.0121 27.5368L59.215 27.2574C60.4179 27.2574 61.2203 27.5368 61.6208 28.0954C62.1562 28.7952 62.4217 31.0328 62.4217 34.6686V39.8421C62.4217 46.6946 62.0212 50.6129 61.3523 51.4492C60.5498 52.568 59.4804 53.1298 58.144 53.1298V54.109H70.9771V53.1298C69.2387 52.9902 68.1693 52.2903 67.6353 51.0318C67.2333 50.1923 66.9679 47.815 66.9679 43.9V29.7744C68.1708 28.0954 70.3096 27.2574 73.2509 27.2574C75.7918 27.2574 77.3951 28.3763 78.0641 30.4726C78.3311 31.4518 78.4645 33.6894 78.4645 37.3252V41.1006C78.4645 47.5342 78.0641 51.1699 77.3951 51.8698C76.7262 52.5664 75.7902 52.9886 74.5873 53.1282V54.1074H87.5539V53.1282C86.0825 53.1282 84.8796 52.5664 84.0771 51.4476C83.4097 50.6113 83.0077 48.0912 83.0077 44.0365L82.6072 29.2126C81.6713 25.4372 79.399 23.4789 75.6552 23.4789C71.6445 23.4789 68.7032 25.4372 66.9664 29.2126V28.5143C66.9664 25.2975 65.7635 23.7598 63.3576 23.7598C60.8183 23.7598 58.9465 24.7389 57.7435 26.8353L58.0121 27.5368ZM52.3965 23.3408L51.594 23.0615L47.5833 25.8577C46.5154 24.1803 44.51 23.3408 41.7037 23.3408C38.4955 23.3408 35.8227 24.8802 33.6823 27.9557C31.5435 31.1725 30.4741 35.3669 30.4741 40.6832C30.4741 50.1923 33.4138 54.8072 39.2964 54.8072C43.0386 54.8072 45.7129 52.9902 47.3178 49.0735V49.4957C47.3178 52.9917 48.5207 54.5295 50.7931 54.5295C53.3324 54.5295 55.2043 53.5504 56.5406 51.4524L56.1402 50.8938H55.2042C53.8678 50.8938 52.9319 50.6145 52.5299 50.1939C51.9945 49.3544 51.7275 46.9771 51.7275 43.0621V40.1262C51.7275 31.0328 51.996 25.4388 52.3965 23.3408ZM43.7076 26.2783C45.446 26.2783 46.6489 26.4179 47.1843 26.8385V48.0943C46.5154 49.0735 45.446 49.775 44.1096 50.332L41.3018 50.8938C37.2911 50.8938 35.2857 47.3977 35.2857 40.5451C35.2857 31.0328 38.0935 26.2783 43.7076 26.2783Z" fill="black"/>
<path fill-rule="evenodd" clip-rule="evenodd" d="M82.6197 77.8828V63.3398H79.6799V78.3018C79.6799 82.22 77.8081 84.1751 74.0643 84.1751C70.4556 84.1751 68.5837 82.22 68.5837 78.4414V63.3398H64.9735V78.4414C64.9735 81.1012 65.6424 83.0563 66.8454 84.3148C68.4487 85.9954 70.7226 86.8317 73.7958 86.8317C76.7371 86.8317 79.143 85.9954 80.8813 84.1751C82.0858 82.777 82.6197 80.6775 82.6197 77.8828ZM52.0084 74.5264C52.0084 66.8327 48.5332 62.9193 41.5812 62.9193C38.3729 62.9193 35.7001 64.0381 33.6948 66.2757C31.8229 68.5133 30.887 71.5889 30.887 75.3675C30.887 83.0579 34.4957 86.8333 41.5812 86.8333C44.656 86.8333 47.0618 85.7145 48.9337 83.4801C50.939 81.2393 52.0084 78.3002 52.0084 74.5264ZM41.3142 84.3132C36.903 84.3132 34.7642 81.2377 34.7642 75.0834C34.7642 68.6514 37.038 65.4346 41.5827 65.4346C45.8604 65.4346 47.9992 68.5118 47.9992 74.6644C47.9977 81.0996 45.7254 84.3132 41.3142 84.3132ZM116.174 86.4128V63.3398H113.366V82.2184L102.271 63.3398H98.1271V86.4128H100.933V67.5326L111.895 86.4128H116.174Z" fill="black"/>
<path fill-rule="evenodd" clip-rule="evenodd" d="M13.235 18.3043V17.0459H0V18.3043C1.73838 18.7249 2.94129 19.2835 3.47676 20.123C4.01223 20.9609 4.67967 23.3382 5.88258 27.1152L13.904 54.1064H17.9147L27.9415 23.7572C28.8774 20.5404 30.4808 18.7233 32.8866 18.3028V17.0443H21.2565V18.3028C22.7279 18.4424 23.6623 18.7233 24.0643 19.2819C24.4647 19.7025 24.7317 20.2611 24.7317 20.9609L16.8438 49.0693L9.62479 20.9609C9.62479 20.123 9.89329 19.5628 10.4272 19.1423C10.9627 18.7233 11.8986 18.444 13.235 18.3043Z" fill="black"/>
<path fill-rule="evenodd" clip-rule="evenodd" d="M11.0901 73.2719V66.1385H20.4479V63.3439H7.4814V86.4168H11.0901V75.9269H19.2435V73.2719H11.0901Z" fill="black"/>
</svg>
