<svg version="1.1" id="Layer_1" xmlns="http://www.w3.org/2000/svg" xmlns:xlink="http://www.w3.org/1999/xlink" x="0px" y="0px"
	 width="100%" viewBox="0 0 478 174" enable-background="new 0 0 478 174" xml:space="preserve">
<path fill="#E30714" opacity="1.000000" stroke="none" 
	d="
M336.000000,175.000000 
	C224.000061,175.000000 112.500122,175.000000 1.000135,175.000000 
	C1.000090,117.000092 1.000090,59.000183 1.000045,1.000205 
	C160.333160,1.000136 319.666321,1.000136 478.999634,1.000068 
	C478.999756,58.999790 478.999756,116.999580 478.999878,174.999695 
	C431.500000,175.000000 384.000000,175.000000 336.000000,175.000000 
M376.512115,153.171143 
	C382.786285,153.171143 389.060455,153.171143 395.764130,153.171143 
	C395.764130,150.783249 395.761963,148.986984 395.764465,147.190704 
	C395.787903,130.361343 395.684326,113.530426 395.890015,96.703293 
	C395.992859,88.288139 400.687225,82.185555 407.216858,81.048271 
	C416.970703,79.349411 422.716431,84.621445 422.854156,95.921951 
	C423.038940,111.083183 422.903687,126.248329 422.905579,141.411789 
	C422.906067,145.198166 422.905670,148.984543 422.905670,152.836975 
	C432.952911,152.836975 442.503876,152.836975 451.998474,152.836975 
	C451.998474,129.361847 452.236877,106.217262 451.863831,83.082542 
	C451.740082,75.407036 448.208099,68.624146 442.475739,63.263008 
	C432.106384,53.565224 411.864105,52.825832 400.319122,61.856098 
	C397.087585,64.383759 394.245911,67.409904 390.913300,70.496452 
	C385.003845,60.773418 376.193756,55.913963 364.915222,55.606827 
	C353.657013,55.300240 345.156158,60.996422 336.991211,69.778099 
	C336.991211,64.917587 336.991211,61.366249 336.991211,57.814255 
	C327.555359,57.814255 318.635925,57.814255 309.608398,57.814255 
	C309.608398,89.707802 309.608398,121.274422 309.608398,152.770737 
	C319.486420,152.770737 329.042023,152.770737 338.849731,152.770737 
	C338.849731,134.561157 338.769043,116.750092 338.923035,98.941055 
	C338.951263,95.678940 339.424683,92.230087 340.581879,89.207916 
	C343.002686,82.885513 348.924896,79.988724 356.014526,80.986122 
	C361.245758,81.722069 364.624329,85.459679 365.288513,92.330246 
	C365.831604,97.947945 365.715302,103.637650 365.735718,109.295990 
	C365.787842,123.750328 365.753082,138.204971 365.753082,153.171143 
	C369.279968,153.171143 372.399261,153.171143 376.512115,153.171143 
M191.498917,77.069077 
	C172.959686,50.500725 132.334442,48.672462 110.755226,70.717499 
	C93.774849,88.064423 91.616470,115.678322 105.395218,134.860214 
	C119.974564,155.156631 148.412155,162.500122 170.934387,151.784515 
	C199.852661,138.025818 208.985535,105.773399 191.498917,77.069077 
M208.473923,141.697952 
	C209.238434,143.079025 209.683334,144.849945 210.817673,145.779892 
	C220.435791,153.664886 231.528320,156.740326 243.859222,155.359482 
	C252.724472,154.366730 259.866058,149.699814 267.102478,143.590164 
	C267.102478,147.219910 267.102478,149.972382 267.102478,152.842529 
	C276.842438,152.842529 286.213104,152.842529 295.599670,152.842529 
	C295.599670,120.974945 295.599670,89.439491 295.599670,57.714798 
	C286.015991,57.714798 276.747070,57.714798 267.046173,57.714798 
	C267.046173,60.826763 267.046173,63.715637 267.046173,67.471809 
	C265.531097,66.260422 264.625305,65.619125 263.813812,64.875015 
	C248.953033,51.248425 226.463470,53.984531 213.021698,63.801491 
	C209.825226,66.135971 208.316330,68.688416 208.359421,72.896507 
	C208.591309,95.542961 208.469589,118.193031 208.473923,141.697952 
M38.412582,60.090168 
	C38.412582,67.537239 38.412582,74.984314 38.412582,82.926315 
	C42.903004,82.926315 46.802151,82.926315 51.181118,82.926315 
	C51.181118,106.637863 51.181118,129.843140 51.181118,152.957825 
	C60.813942,152.957825 69.934647,152.957825 79.649368,152.957825 
	C79.649368,129.557541 79.649368,106.367729 79.649368,82.794701 
	C85.503334,82.794701 90.769363,82.794701 96.258362,82.794701 
	C96.258362,74.213715 96.258362,66.030617 96.258362,57.300701 
	C90.307861,57.300701 84.737366,57.300701 77.969856,57.300701 
	C79.451118,54.246651 80.088669,50.667553 81.589561,50.258835 
	C86.242119,48.991871 91.222931,48.930386 96.584763,48.345585 
	C96.584763,42.427170 96.662491,35.297153 96.496307,28.172831 
	C96.472878,27.168167 95.466301,25.608858 94.564835,25.287271 
	C75.289795,18.411139 55.266014,27.689207 51.411743,47.287628 
	C50.781620,50.491711 50.885376,53.840122 50.624290,57.479362 
	C48.274300,57.479362 46.101452,57.256996 43.998672,57.545422 
	C42.108315,57.804714 40.294868,58.624779 38.412582,60.090168 
z"/>
<path fill="#FFFCFC" opacity="1.000000" stroke="none" 
	d="
M376.015320,153.171143 
	C372.399261,153.171143 369.279968,153.171143 365.753082,153.171143 
	C365.753082,138.204971 365.787842,123.750328 365.735718,109.295990 
	C365.715302,103.637650 365.831604,97.947945 365.288513,92.330246 
	C364.624329,85.459679 361.245758,81.722069 356.014526,80.986122 
	C348.924896,79.988724 343.002686,82.885513 340.581879,89.207916 
	C339.424683,92.230087 338.951263,95.678940 338.923035,98.941055 
	C338.769043,116.750092 338.849731,134.561157 338.849731,152.770737 
	C329.042023,152.770737 319.486420,152.770737 309.608398,152.770737 
	C309.608398,121.274422 309.608398,89.707802 309.608398,57.814255 
	C318.635925,57.814255 327.555359,57.814255 336.991211,57.814255 
	C336.991211,61.366249 336.991211,64.917587 336.991211,69.778099 
	C345.156158,60.996422 353.657013,55.300240 364.915222,55.606827 
	C376.193756,55.913963 385.003845,60.773418 390.913300,70.496452 
	C394.245911,67.409904 397.087585,64.383759 400.319122,61.856098 
	C411.864105,52.825832 432.106384,53.565224 442.475739,63.263008 
	C448.208099,68.624146 451.740082,75.407036 451.863831,83.082542 
	C452.236877,106.217262 451.998474,129.361847 451.998474,152.836975 
	C442.503876,152.836975 432.952911,152.836975 422.905670,152.836975 
	C422.905670,148.984543 422.906067,145.198166 422.905579,141.411789 
	C422.903687,126.248329 423.038940,111.083183 422.854156,95.921951 
	C422.716431,84.621445 416.970703,79.349411 407.216858,81.048271 
	C400.687225,82.185555 395.992859,88.288139 395.890015,96.703293 
	C395.684326,113.530426 395.787903,130.361343 395.764465,147.190704 
	C395.761963,148.986984 395.764130,150.783249 395.764130,153.171143 
	C389.060455,153.171143 382.786285,153.171143 376.015320,153.171143 
z"/>
<path fill="#FFFDFD" opacity="1.000000" stroke="none" 
	d="
M191.711533,77.364494 
	C208.985535,105.773399 199.852661,138.025818 170.934387,151.784515 
	C148.412155,162.500122 119.974564,155.156631 105.395218,134.860214 
	C91.616470,115.678322 93.774849,88.064423 110.755226,70.717499 
	C132.334442,48.672462 172.959686,50.500725 191.711533,77.364494 
M154.386795,128.164200 
	C167.524445,124.434296 174.118698,112.800316 170.597549,99.564255 
	C167.310547,87.208397 155.455185,80.356529 142.625626,83.397736 
	C130.255692,86.329979 123.273277,98.235023 126.072365,111.621124 
	C128.612930,123.770859 140.416595,130.958755 154.386795,128.164200 
z"/>
<path fill="#FFFBFB" opacity="1.000000" stroke="none" 
	d="
M208.471924,141.269897 
	C208.469589,118.193031 208.591309,95.542961 208.359421,72.896507 
	C208.316330,68.688416 209.825226,66.135971 213.021698,63.801491 
	C226.463470,53.984531 248.953033,51.248425 263.813812,64.875015 
	C264.625305,65.619125 265.531097,66.260422 267.046173,67.471809 
	C267.046173,63.715637 267.046173,60.826763 267.046173,57.714798 
	C276.747070,57.714798 286.015991,57.714798 295.599670,57.714798 
	C295.599670,89.439491 295.599670,120.974945 295.599670,152.842529 
	C286.213104,152.842529 276.842438,152.842529 267.102478,152.842529 
	C267.102478,149.972382 267.102478,147.219910 267.102478,143.590164 
	C259.866058,149.699814 252.724472,154.366730 243.859222,155.359482 
	C231.528320,156.740326 220.435791,153.664886 210.817673,145.779892 
	C209.683334,144.849945 209.238434,143.079025 208.471924,141.269897 
M253.600159,127.369537 
	C263.084961,123.358315 268.165283,115.686646 267.993500,105.634422 
	C267.817535,95.337563 262.320068,87.133957 253.454910,83.939255 
	C244.277283,80.631950 234.300568,83.038933 227.948746,90.092880 
	C221.372314,97.396263 220.450180,109.525574 225.792923,118.449219 
	C231.050949,127.231369 240.983749,130.607376 253.600159,127.369537 
z"/>
<path fill="#FEFAFA" opacity="1.000000" stroke="none" 
	d="
M38.430038,59.643826 
	C40.294868,58.624779 42.108315,57.804714 43.998672,57.545422 
	C46.101452,57.256996 48.274300,57.479362 50.624290,57.479362 
	C50.885376,53.840122 50.781620,50.491711 51.411743,47.287628 
	C55.266014,27.689207 75.289795,18.411139 94.564835,25.287271 
	C95.466301,25.608858 96.472878,27.168167 96.496307,28.172831 
	C96.662491,35.297153 96.584763,42.427170 96.584763,48.345585 
	C91.222931,48.930386 86.242119,48.991871 81.589561,50.258835 
	C80.088669,50.667553 79.451118,54.246651 77.969856,57.300701 
	C84.737366,57.300701 90.307861,57.300701 96.258362,57.300701 
	C96.258362,66.030617 96.258362,74.213715 96.258362,82.794701 
	C90.769363,82.794701 85.503334,82.794701 79.649368,82.794701 
	C79.649368,106.367729 79.649368,129.557541 79.649368,152.957825 
	C69.934647,152.957825 60.813942,152.957825 51.181118,152.957825 
	C51.181118,129.843140 51.181118,106.637863 51.181118,82.926315 
	C46.802151,82.926315 42.903004,82.926315 38.412582,82.926315 
	C38.412582,74.984314 38.412582,67.537239 38.430038,59.643826 
z"/>
<path fill="#E30815" opacity="1.000000" stroke="none" 
	d="
M153.982361,128.267471 
	C140.416595,130.958755 128.612930,123.770859 126.072365,111.621124 
	C123.273277,98.235023 130.255692,86.329979 142.625626,83.397736 
	C155.455185,80.356529 167.310547,87.208397 170.597549,99.564255 
	C174.118698,112.800316 167.524445,124.434296 153.982361,128.267471 
z"/>
<path fill="#E30916" opacity="1.000000" stroke="none" 
	d="
M253.229492,127.509026 
	C240.983749,130.607376 231.050949,127.231369 225.792923,118.449219 
	C220.450180,109.525574 221.372314,97.396263 227.948746,90.092880 
	C234.300568,83.038933 244.277283,80.631950 253.454910,83.939255 
	C262.320068,87.133957 267.817535,95.337563 267.993500,105.634422 
	C268.165283,115.686646 263.084961,123.358315 253.229492,127.509026 
z"/>
</svg>